<svg width="192" height="65" viewBox="0 0 192 65" fill="none" xmlns="http://www.w3.org/2000/svg">
<g id="logo 1">
<path id="Vector" d="M34.1124 28.6898C32.7508 28.6898 31.6758 29.8603 31.6758 31.3175C31.6758 32.7747 32.7747 33.9452 34.1124 33.9452C35.4741 33.9452 36.549 32.7747 36.549 31.3175C36.549 29.8603 35.4502 28.6898 34.1124 28.6898ZM25.3932 28.6898C24.0316 28.6898 22.9566 29.8603 22.9566 31.3175C22.9566 32.7747 24.0555 33.9452 25.3932 33.9452C26.7548 33.9452 27.8298 32.7747 27.8298 31.3175C27.8537 29.8603 26.7548 28.6898 25.3932 28.6898Z" fill="white"/>
<path id="Vector_2" d="M45.7221 8.81479H13.7119C11.0125 8.81479 8.81476 11.0125 8.81476 13.7119V45.7222C8.81476 48.4216 11.0125 50.6193 13.7119 50.6193H40.8012L39.5351 46.2477L42.5928 49.0665L45.4833 51.7181L50.6431 56.1852V13.7119C50.6192 11.0125 48.4215 8.81479 45.7221 8.81479ZM36.5013 39.7501C36.5013 39.7501 35.6413 38.7229 34.9246 37.839C38.054 36.9552 39.2484 35.0202 39.2484 35.0202C38.269 35.6652 37.3374 36.1191 36.5013 36.4296C35.3069 36.9313 34.1602 37.2418 33.0375 37.4568C30.7442 37.8868 28.642 37.7674 26.8504 37.4329C25.4888 37.1702 24.3182 36.8118 23.3388 36.4057C22.7894 36.1908 22.1922 35.928 21.595 35.5935C21.5233 35.5458 21.4517 35.5219 21.38 35.4741C21.3322 35.4502 21.3083 35.4263 21.2844 35.4263C20.8544 35.1874 20.6156 35.0202 20.6156 35.0202C20.6156 35.0202 21.7622 36.9074 24.796 37.8152C24.0794 38.7229 23.1955 39.774 23.1955 39.774C17.9162 39.6068 15.9096 36.1669 15.9096 36.1669C15.9096 28.5465 19.3495 22.3594 19.3495 22.3594C22.7894 19.8034 26.0382 19.8751 26.0382 19.8751L26.2771 20.1617C21.9772 21.38 20.0184 23.2672 20.0184 23.2672C20.0184 23.2672 20.5439 22.9805 21.4278 22.5983C23.9838 21.4756 26.0143 21.1889 26.8504 21.0934C26.9937 21.0695 27.1132 21.0456 27.2565 21.0456C28.7137 20.8545 30.362 20.8067 32.0819 20.9978C34.3513 21.2606 36.7879 21.9295 39.2723 23.2672C39.2723 23.2672 37.3851 21.4756 33.3241 20.2573L33.6586 19.8751C33.6586 19.8751 36.9313 19.8034 40.3473 22.3594C40.3473 22.3594 43.7872 28.5465 43.7872 36.1669C43.7872 36.143 41.7806 39.5829 36.5013 39.7501ZM72.5726 19.039H64.6417V27.9493L69.921 32.7031V24.0555H72.7398C74.5314 24.0555 75.4153 24.9155 75.4153 26.301V32.9181C75.4153 34.3036 74.5792 35.2352 72.7398 35.2352H64.6178V40.2757H72.5487C76.8008 40.2995 80.7901 38.1735 80.7901 33.3003V26.1816C80.814 21.2128 76.8247 19.039 72.5726 19.039ZM114.138 33.3003V25.9905C114.138 23.3628 118.868 22.7655 120.301 25.3933L124.673 23.6255C122.953 19.8512 119.824 18.7523 117.22 18.7523C112.968 18.7523 108.763 21.2128 108.763 25.9905V33.3003C108.763 38.1257 112.968 40.5384 117.124 40.5384C119.8 40.5384 123.001 39.2246 124.768 35.7847L120.086 33.6347C118.94 36.573 114.138 35.8563 114.138 33.3003ZM99.6858 26.9938C98.0375 26.6354 96.9386 26.0382 96.8669 25.011C96.9625 22.5505 100.761 22.455 102.982 24.8199L106.494 22.1206C104.296 19.4451 101.812 18.7284 99.2558 18.7284C95.362 18.7284 91.5876 20.9261 91.5876 25.0827C91.5876 29.1198 94.6931 31.2937 98.1091 31.8192C99.853 32.0581 101.788 32.7508 101.74 33.9453C101.597 36.2146 96.9147 36.0952 94.7887 33.5153L91.3965 36.6924C93.3793 39.2485 96.0786 40.5384 98.6108 40.5384C102.505 40.5384 106.828 38.2929 106.996 34.1841C107.234 29.0004 103.46 27.6865 99.6858 26.9938ZM83.6806 40.2518H89.0316V19.039H83.6806V40.2518ZM173.907 19.039H165.976V27.9493L171.255 32.7031V24.0555H174.074C175.865 24.0555 176.749 24.9155 176.749 26.301V32.9181C176.749 34.3036 175.913 35.2352 174.074 35.2352H165.952V40.2757H173.907C178.159 40.2995 182.148 38.1735 182.148 33.3003V26.1816C182.148 21.2128 178.159 19.039 173.907 19.039ZM134.993 18.7523C130.597 18.7523 126.226 21.1411 126.226 26.0382V33.2764C126.226 38.1257 130.621 40.5623 135.04 40.5623C139.436 40.5623 143.807 38.1257 143.807 33.2764V26.0382C143.807 21.165 139.388 18.7523 134.993 18.7523ZM138.433 33.2764C138.433 34.8052 136.713 35.5935 135.017 35.5935C133.297 35.5935 131.577 34.853 131.577 33.2764V26.0382C131.577 24.4855 133.249 23.6494 134.921 23.6494C136.665 23.6494 138.433 24.3899 138.433 26.0382V33.2764ZM163.014 26.0382C162.894 21.0695 159.502 19.0629 155.13 19.0629H146.65V40.2757H152.073V33.5392H153.028L157.949 40.2757H164.638L158.857 32.9897C161.413 32.1775 163.014 29.9559 163.014 26.0382ZM155.226 28.9048H152.073V24.0555H155.226C158.594 24.0555 158.594 28.9048 155.226 28.9048Z" fill="white"/>
</g>
</svg>
